<?xml version="1.0" standalone="no"?>
<!DOCTYPE svg PUBLIC "-//W3C//DTD SVG 1.1//EN" "http://www.w3.org/Graphics/SVG/1.1/DTD/svg11.dtd">
<svg width="874px" height="100px" version="1.1" xmlns="http://www.w3.org/2000/svg" xmlns:xlink="http://www.w3.org/1999/xlink" xml:space="preserve" style="fill-rule:evenodd;clip-rule:evenodd;stroke-linejoin:round;stroke-miterlimit:1.41421;">
    <g>
        <g id="Layer1">
            <g>
                <path d="M35.0881,25.4721L35.0881,42.1314L0.03254,77.2659L0.03254,60.6066L35.0881,25.4721ZM47.8786,37.3152L47.8786,52.3165L34.7723,65.4228L18.113,65.4228L36.1145,47.4213L36.1145,25.4721L47.8786,37.3152ZM36.1145,77.2659L36.1145,65.4228L47.8786,53.6587L47.8786,77.2659L36.1145,77.2659Z" style="fill:rgb(36,36,36);fill-rule:nonzero;"/>
                <path d="M53.4843,65.4228L53.4843,43.5526L65.3274,55.3167L65.3274,77.2659L53.4843,65.4228ZM88.6188,25.4721L100.383,36.9204L100.383,65.4228L88.6188,77.2659L53.4843,42.1314L53.4843,25.4721L88.6188,60.5277L88.6188,25.4721Z" style="fill:rgb(36,36,36);fill-rule:nonzero;"/>
                <path d="M139.228,25.4721L139.228,42.1314L104.173,77.2659L104.173,60.6066L139.228,25.4721ZM152.019,37.3152L152.019,52.3165L138.912,65.4228L122.253,65.4228L140.255,47.4213L140.255,25.4721L152.019,37.3152ZM140.255,77.2659L140.255,65.4228L152.019,53.6587L152.019,77.2659L140.255,77.2659Z" style="fill:rgb(36,36,36);fill-rule:nonzero;"/>
                <path d="M193.706,65.4228L181.942,77.2659L158.967,77.2659L170.731,65.4228L193.706,65.4228ZM169.389,25.4721L169.389,65.4228L157.625,77.2659L157.625,37.2363L169.389,25.4721Z" style="fill:rgb(36,36,36);fill-rule:nonzero;"/>
                <path d="M229.552,25.4721L229.552,60.5277L217.708,48.7635L217.708,37.2363L229.552,25.4721ZM229.552,65.4228L217.708,77.2659L217.708,66.765L193.075,42.1314L193.075,25.4721L229.552,61.8699L229.552,65.4228Z" style="fill:rgb(36,36,36);fill-rule:nonzero;"/>
                <path d="M273.924,25.4721L262.081,37.2363L250.948,37.2363L250.948,25.4721L273.924,25.4721ZM250.001,25.4721L250.001,41.6577L262.002,53.6587L245.342,53.6587L238.236,46.5528L238.236,37.2363L250.001,25.4721ZM262.002,53.6587L273.766,65.4228L273.766,65.5018L262.002,77.2659L245.263,77.2659L233.42,65.5018L245.263,53.6587L245.263,65.5018L262.002,65.5018L262.002,53.6587Z" style="fill:rgb(36,36,36);fill-rule:nonzero;"/>
                <path d="M290.188,77.2659L278.424,65.5018L278.424,37.3152L290.188,49.0793L290.188,77.2659ZM290.188,25.4721L290.188,37.3152L278.424,37.3152L278.424,25.4721L290.188,25.4721Z" style="fill:rgb(36,36,36);fill-rule:nonzero;"/>
                <path d="M334.481,25.4721L322.638,37.2363L311.506,37.2363L311.506,25.4721L334.481,25.4721ZM310.558,25.4721L310.558,41.6577L322.559,53.6587L305.9,53.6587L298.794,46.5528L298.794,37.2363L310.558,25.4721ZM322.559,53.6587L334.323,65.4228L334.323,65.5018L322.559,77.2659L305.821,77.2659L293.978,65.5018L305.821,53.6587L305.821,65.5018L322.559,65.5018L322.559,53.6587Z" style="fill:rgb(36,36,36);fill-rule:nonzero;"/>
                <path d="M367.089,25.5511L378.853,37.3152L378.853,77.2659L367.089,65.4228L367.089,25.5511ZM393.855,25.4721L405.619,37.2363L405.619,48.4477L395.513,58.4749L378.853,58.4749L393.855,43.5526L393.776,37.2363L380.117,37.2363L368.352,25.4721L393.855,25.4721Z" style="fill:rgb(140,23,23);fill-rule:nonzero;"/>
                <path d="M439.569,48.9214L439.569,37.2363L423.857,37.2363L423.857,25.4721L449.675,25.4721L449.675,38.8153L439.569,48.9214ZM439.569,48.9214L451.175,60.5277L451.175,77.2659L422.91,48.9214L439.569,48.9214ZM411.145,37.2363L422.91,25.4721L422.91,65.4228L411.145,77.2659L411.145,37.2363Z" style="fill:rgb(140,23,23);fill-rule:nonzero;"/>
                <path d="M484.336,25.1563L496.1,36.9204L496.1,76.9501L479.441,76.9501L467.676,65.1859L484.336,65.1859L484.336,25.1563ZM483.388,36.9204L467.676,36.9204L467.676,65.1859L455.912,53.3429L455.912,36.9204L467.676,25.1563L483.388,25.1563L483.388,36.9204Z" style="fill:rgb(140,23,23);fill-rule:nonzero;"/>
                <path d="M530.05,44.4211L541.814,56.2642L541.814,77.2659L525.155,77.2659L513.391,65.5018L530.05,65.5018L530.05,56.2642L525.155,56.2642L513.391,44.4211L530.05,44.4211ZM513.391,25.4721L513.391,65.5018L501.627,53.7376L501.627,37.3152L513.391,25.4721ZM541.814,25.4721L529.971,37.3152L514.338,37.3152L514.338,25.4721L541.814,25.4721Z" style="fill:rgb(140,23,23);fill-rule:nonzero;"/>
                <path d="M575.764,48.9214L575.764,37.2363L560.052,37.2363L560.052,25.4721L585.87,25.4721L585.87,38.8153L575.764,48.9214ZM575.764,48.9214L587.371,60.5277L587.371,77.2659L559.105,48.9214L575.764,48.9214ZM547.341,37.2363L559.105,25.4721L559.105,65.4228L547.341,77.2659L547.341,37.2363Z" style="fill:rgb(140,23,23);fill-rule:nonzero;"/>
                <path d="M625.505,25.4721L625.505,42.1314L590.45,77.2659L590.45,60.6066L625.505,25.4721ZM638.296,37.3152L638.296,52.3165L625.189,65.4228L608.53,65.4228L626.532,47.4213L626.532,25.4721L638.296,37.3152ZM626.532,77.2659L626.532,65.4228L638.296,53.6587L638.296,77.2659L626.532,77.2659Z" style="fill:rgb(140,23,23);fill-rule:nonzero;"/>
                <path d="M643.902,65.4228L643.902,26.8144L655.745,38.5785L655.745,77.2659L643.902,65.4228ZM686.852,37.2363L698.617,25.4721L698.617,77.2659L686.852,65.4228L686.852,37.2363ZM672.404,37.2363L686.852,37.2363L671.299,52.7902L662.772,44.3421L643.902,25.4721L660.561,25.4721L672.404,37.2363Z" style="fill:rgb(140,23,23);fill-rule:nonzero;"/>
                <path d="M704.143,65.4228L704.143,26.8144L715.986,38.5785L715.986,77.2659L704.143,65.4228ZM747.094,37.2363L758.858,25.4721L758.858,77.2659L747.094,65.4228L747.094,37.2363ZM732.646,37.2363L747.094,37.2363L731.54,52.7902L723.013,44.3421L704.143,25.4721L720.803,25.4721L732.646,37.2363Z" style="fill:rgb(140,23,23);fill-rule:nonzero;"/>
                <path d="M776.149,77.2659L764.385,65.5018L764.385,37.3152L776.149,49.0793L776.149,77.2659ZM776.149,25.4721L776.149,37.3152L764.385,37.3152L764.385,25.4721L776.149,25.4721Z" style="fill:rgb(140,23,23);fill-rule:nonzero;"/>
                <path d="M781.597,65.4228L781.597,43.5526L793.44,55.3167L793.44,77.2659L781.597,65.4228ZM816.732,25.4721L828.496,36.9204L828.496,65.4228L816.732,77.2659L781.597,42.1314L781.597,25.4721L816.732,60.5277L816.732,25.4721Z" style="fill:rgb(140,23,23);fill-rule:nonzero;"/>
                <path d="M862.367,44.4211L874.131,56.2642L874.131,77.2659L857.472,77.2659L845.708,65.5018L862.367,65.5018L862.367,56.2642L857.472,56.2642L845.708,44.4211L862.367,44.4211ZM845.708,25.4721L845.708,65.5018L833.944,53.7376L833.944,37.3152L845.708,25.4721ZM874.131,25.4721L862.288,37.3152L846.655,37.3152L846.655,25.4721L874.131,25.4721Z" style="fill:rgb(140,23,23);fill-rule:nonzero;"/>
            </g>
            <g>
                <path d="M0.255403,91.9313C0.255403,91.3311 0.34955,90.7662 0.537844,90.2367C0.726138,89.7071 1.01446,89.2452 1.40282,88.8509C1.79118,88.4567 2.2825,88.1448 2.87681,87.9153C3.47111,87.6859 4.18015,87.5711 5.00394,87.5711C5.49821,87.5711 5.94541,87.6064 6.34553,87.677C6.74566,87.7476 7.15167,87.8653 7.56356,88.0301L7.08694,89.7777C6.85157,89.6953 6.58973,89.6218 6.3014,89.557C6.01308,89.4923 5.64532,89.4599 5.19812,89.4599C4.68031,89.4599 4.24782,89.5217 3.90066,89.6453C3.55349,89.7689 3.27399,89.9395 3.06216,90.1572C2.85033,90.3749 2.69734,90.6368 2.60319,90.9428C2.50905,91.2487 2.46197,91.5783 2.46197,91.9313C2.46197,92.6962 2.67675,93.2964 3.10629,93.7319C3.53584,94.1673 4.26842,94.385 5.30403,94.385C5.64532,94.385 6.00131,94.3615 6.37201,94.3144C6.74272,94.2673 7.08106,94.1908 7.38704,94.0849L7.70478,95.8678C7.3988,95.9855 7.0281,96.0826 6.59267,96.1591C6.15724,96.2356 5.64532,96.2738 5.0569,96.2738C4.20958,96.2738 3.48288,96.162 2.87681,95.9384C2.27074,95.7148 1.77352,95.4089 1.38517,95.0205C0.99681,94.6321 0.711427,94.1732 0.529017,93.6436C0.346608,93.114 0.255403,92.5433 0.255403,91.9313Z" style="fill:black;fill-rule:nonzero;"/>
                <path d="M16.637,91.9137C16.637,92.5727 16.5428,93.1699 16.3545,93.7054C16.1662,94.2408 15.9015,94.7028 15.5602,95.0911C15.2189,95.4795 14.8099,95.7796 14.3333,95.9914C13.8567,96.2032 13.3242,96.3091 12.7358,96.3091C12.1473,96.3091 11.6148,96.2032 11.1382,95.9914C10.6616,95.7796 10.2497,95.4795 9.90252,95.0911C9.55536,94.7028 9.28763,94.2408 9.09933,93.7054C8.91104,93.1699 8.81689,92.5727 8.81689,91.9137C8.81689,91.2664 8.91398,90.675 9.10816,90.1396C9.30234,89.6041 9.57301,89.1451 9.92018,88.7627C10.2673,88.3802 10.6822,88.086 11.1647,87.88C11.6472,87.6741 12.1709,87.5711 12.7358,87.5711C13.3124,87.5711 13.839,87.6741 14.3157,87.88C14.7923,88.086 15.2042,88.3802 15.5513,88.7627C15.8985,89.1451 16.1662,89.6041 16.3545,90.1396C16.5428,90.675 16.637,91.2664 16.637,91.9137ZM11.0235,91.9313C11.0235,92.6727 11.1559,93.2729 11.4206,93.7319C11.6854,94.1908 12.112,94.4203 12.7005,94.4203C13.2653,94.4203 13.6919,94.1908 13.9803,93.7319C14.2686,93.2729 14.4128,92.6727 14.4128,91.9313C14.4128,91.1899 14.2804,90.5927 14.0156,90.1396C13.7508,89.6865 13.3242,89.4599 12.7358,89.4599C12.1709,89.4599 11.7443,89.6865 11.4559,90.1396C11.1676,90.5927 11.0235,91.1899 11.0235,91.9313Z" style="fill:black;fill-rule:nonzero;"/>
                <path d="M24.8631,95.7972C24.4629,95.9031 23.9775,96.009 23.4067,96.115C22.836,96.2209 22.2152,96.2738 21.5444,96.2738C20.8618,96.2738 20.3028,96.1797 19.8674,95.9914C19.432,95.8031 19.0877,95.5354 18.8347,95.1882C18.5817,94.841 18.4081,94.4321 18.314,93.9613C18.2198,93.4906 18.1727,92.9728 18.1727,92.4079L18.1727,87.783L20.344,87.783L20.344,92.1255C20.344,92.8904 20.4352,93.4583 20.6176,93.829C20.8,94.1997 21.156,94.385 21.6856,94.385C22.0151,94.385 22.3446,94.3556 22.6741,94.2967L22.6741,87.783L24.8631,87.783L24.8631,95.7972Z" style="fill:black;fill-rule:nonzero;"/>
                <path d="M28.4818,89.5835L26.593,89.5835L26.593,87.783L28.4818,87.783L28.4818,85.7L30.6531,85.3469L30.6531,87.783L34.1307,87.783L34.1307,89.5835L30.6531,89.5835L30.6531,92.9375C30.6531,93.2435 30.6825,93.4906 30.7414,93.6789C30.8002,93.8672 30.8826,94.0143 30.9885,94.1202C31.0944,94.2261 31.2239,94.2967 31.3769,94.3321C31.5298,94.3674 31.7005,94.385 31.8888,94.385C32.0888,94.385 32.2742,94.3791 32.4448,94.3674C32.6155,94.3556 32.7802,94.335 32.9391,94.3056C33.098,94.2762 33.2627,94.232 33.4334,94.1732C33.604,94.1143 33.7894,94.0378 33.9894,93.9437L34.2895,95.8149C33.8894,95.9796 33.4569,96.0973 32.9921,96.1679C32.5272,96.2385 32.0771,96.2738 31.6416,96.2738C31.1356,96.2738 30.6884,96.2326 30.3001,96.1503C29.9117,96.0679 29.5822,95.909 29.3115,95.6736C29.0408,95.4383 28.8349,95.1058 28.6937,94.6763C28.5525,94.2467 28.4818,93.6848 28.4818,92.9905L28.4818,89.5835Z" style="fill:black;fill-rule:nonzero;"/>
                <path d="M46.0991,91.5783L51.695,93.8907L51.2889,95.1088L44.4751,92.2137L44.4751,90.9604L51.2889,88.0654L51.695,89.2834L46.0991,91.5783Z" style="fill:black;fill-rule:nonzero;"/>
                <path d="M54.9254,91.5783L60.5212,93.8907L60.1152,95.1088L53.3013,92.2137L53.3013,90.9604L60.1152,88.0654L60.5212,89.2834L54.9254,91.5783Z" style="fill:black;fill-rule:nonzero;"/>
                <path d="M73.7253,84.0936L73.7253,84.8879C73.7253,85.4057 73.6959,85.9971 73.6371,86.662C73.5782,87.3269 73.5017,87.9359 73.4076,88.4891L72.6662,88.4891C72.5838,87.9359 72.5132,87.3269 72.4544,86.662C72.3955,85.9971 72.3661,85.3999 72.3661,84.8703L72.3661,84.0936L73.7253,84.0936ZM76.638,84.0936L76.638,84.8879C76.638,85.4057 76.6086,85.9971 76.5498,86.662C76.4909,87.3269 76.4203,87.9359 76.3379,88.4891L75.5965,88.4891C75.5024,87.9359 75.4259,87.3269 75.367,86.662C75.3082,85.9971 75.2788,85.3999 75.2788,84.8703L75.2788,84.0936L76.638,84.0936Z" style="fill:rgb(63,146,140);fill-rule:nonzero;"/>
                <path d="M84.8818,96.2738C84.3639,96.2738 83.9344,96.2032 83.5931,96.062C83.2518,95.9208 82.9812,95.709 82.7811,95.4265C82.581,95.1441 82.4398,94.794 82.3574,94.3762C82.2751,93.9584 82.2339,93.473 82.2339,92.9198L82.2339,85.1704L79.8684,85.1704L79.8684,83.9347L83.6814,83.9347L83.6814,92.9198C83.6814,93.3317 83.7079,93.6671 83.7608,93.926C83.8138,94.1849 83.8962,94.3938 84.008,94.5527C84.1198,94.7116 84.258,94.8204 84.4228,94.8793C84.5875,94.9381 84.7817,94.9675 85.0053,94.9675C85.3466,94.9675 85.6644,94.9264 85.9586,94.844C86.2528,94.7616 86.4823,94.6733 86.647,94.5792L86.8588,95.8149C86.7882,95.8502 86.6882,95.8943 86.5587,95.9473C86.4293,96.0002 86.2763,96.0502 86.0998,96.0973C85.9233,96.1444 85.732,96.1856 85.5261,96.2209C85.3201,96.2562 85.1054,96.2738 84.8818,96.2738Z" style="fill:rgb(63,146,140);fill-rule:nonzero;"/>
                <path d="M92.3135,87.6947C93.4197,87.6947 94.2729,88.0389 94.8731,88.7274C95.4733,89.4158 95.7734,90.4603 95.7734,91.8607L95.7734,92.3726L89.9127,92.3726C89.9716,93.2199 90.2511,93.8643 90.7512,94.3056C91.2514,94.7469 91.9545,94.9675 92.8607,94.9675C93.3785,94.9675 93.8198,94.9264 94.1847,94.844C94.5495,94.7616 94.826,94.6733 95.0143,94.5792L95.2085,95.8149C95.032,95.909 94.7142,96.009 94.2553,96.115C93.7963,96.2209 93.2785,96.2738 92.7018,96.2738C91.9957,96.2738 91.375,96.165 90.8395,95.9473C90.304,95.7295 89.8598,95.4324 89.5067,95.0558C89.1537,94.6792 88.8889,94.2291 88.7124,93.7054C88.5358,93.1817 88.4476,92.6139 88.4476,92.0019C88.4476,91.2723 88.5594,90.6368 88.783,90.0954C89.0066,89.5541 89.3008,89.1069 89.6656,88.7538C90.0304,88.4008 90.4423,88.136 90.9013,87.9595C91.3602,87.783 91.831,87.6947 92.3135,87.6947ZM94.2906,91.1899C94.2906,90.4956 94.1082,89.9454 93.7433,89.5394C93.3785,89.1334 92.896,88.9304 92.2958,88.9304C91.9545,88.9304 91.6456,88.9951 91.3691,89.1245C91.0925,89.254 90.8542,89.4246 90.6541,89.6365C90.4541,89.8483 90.2952,90.0896 90.1775,90.3602C90.0598,90.6309 89.9833,90.9075 89.948,91.1899L94.2906,91.1899Z" style="fill:rgb(63,146,140);fill-rule:nonzero;"/>
                <path d="M100.857,87.8889L104.317,87.8889L104.317,89.1069L100.857,89.1069L100.857,92.9198C100.857,93.3317 100.887,93.6671 100.946,93.926C101.004,94.1849 101.102,94.3938 101.237,94.5527C101.372,94.7116 101.546,94.8204 101.758,94.8793C101.969,94.9381 102.228,94.9675 102.534,94.9675C102.958,94.9675 103.299,94.9322 103.558,94.8616C103.817,94.791 104.064,94.6969 104.3,94.5792L104.511,95.8149C104.347,95.8855 104.085,95.9796 103.726,96.0973C103.367,96.215 102.923,96.2738 102.393,96.2738C101.781,96.2738 101.281,96.2032 100.893,96.062C100.504,95.9208 100.201,95.709 99.9835,95.4265C99.7658,95.1441 99.6158,94.794 99.5334,94.3762C99.451,93.9584 99.4098,93.473 99.4098,92.9198L99.4098,89.1069L97.6799,89.1069L97.6799,87.8889L99.4098,87.8889L99.4098,85.594L100.857,85.3469L100.857,87.8889Z" style="fill:rgb(63,146,140);fill-rule:nonzero;"/>
                <path d="M110.566,84.0936L110.566,84.8879C110.566,85.1468 110.557,85.444 110.54,85.7794C110.522,86.1148 110.499,86.462 110.469,86.8209C110.44,87.1798 110.407,87.5329 110.372,87.88C110.337,88.2272 110.296,88.5361 110.248,88.8068L109.348,88.8068C109.301,88.5361 109.26,88.2272 109.225,87.88C109.189,87.5329 109.157,87.1798 109.128,86.8209C109.098,86.462 109.075,86.1118 109.057,85.7706C109.039,85.4293 109.03,85.1292 109.03,84.8703L109.03,84.0936L110.566,84.0936Z" style="fill:rgb(63,146,140);fill-rule:nonzero;"/>
                <path d="M120.416,94.032C120.416,93.7377 120.296,93.4965 120.054,93.3082C119.813,93.1199 119.513,92.9552 119.154,92.8139C118.795,92.6727 118.404,92.5344 117.98,92.3991C117.557,92.2638 117.165,92.0961 116.806,91.896C116.447,91.6959 116.147,91.4488 115.906,91.1546C115.665,90.8604 115.544,90.4779 115.544,90.0072C115.544,89.3481 115.812,88.798 116.347,88.3567C116.883,87.9153 117.721,87.6947 118.863,87.6947C119.31,87.6947 119.772,87.7271 120.249,87.7918C120.725,87.8565 121.134,87.9418 121.476,88.0477L121.211,89.354C121.117,89.307 120.987,89.2569 120.822,89.204C120.658,89.151 120.469,89.104 120.257,89.0628C120.046,89.0216 119.819,88.9892 119.578,88.9657C119.337,88.9421 119.104,88.9304 118.881,88.9304C117.61,88.9304 116.974,89.2775 116.974,89.9719C116.974,90.219 117.095,90.4279 117.336,90.5985C117.577,90.7692 117.88,90.9251 118.245,91.0663C118.61,91.2075 119.004,91.3517 119.428,91.4988C119.851,91.6459 120.246,91.8254 120.611,92.0372C120.975,92.2491 121.278,92.505 121.52,92.8051C121.761,93.1052 121.882,93.4847 121.882,93.9437C121.882,94.6851 121.593,95.2588 121.017,95.6648C120.44,96.0708 119.528,96.2738 118.28,96.2738C117.716,96.2738 117.198,96.2268 116.727,96.1326C116.256,96.0385 115.809,95.8972 115.385,95.709L115.668,94.385C116.08,94.5733 116.512,94.7292 116.965,94.8528C117.418,94.9764 117.904,95.0382 118.422,95.0382C119.751,95.0382 120.416,94.7028 120.416,94.032Z" style="fill:rgb(63,146,140);fill-rule:nonzero;"/>
                <path d="M137.981,89.6188C137.816,89.4658 137.575,89.3217 137.257,89.1863C136.939,89.051 136.61,88.9833 136.268,88.9833C135.88,88.9833 135.548,89.0598 135.271,89.2128C134.994,89.3658 134.768,89.5747 134.591,89.8395C134.415,90.1043 134.285,90.422 134.203,90.7927C134.121,91.1634 134.079,91.5606 134.079,91.9843C134.079,92.9375 134.303,93.673 134.75,94.1908C135.197,94.7086 135.78,94.9675 136.498,94.9675C136.863,94.9675 137.172,94.9499 137.425,94.9146C137.678,94.8793 137.863,94.844 137.981,94.8087L137.981,89.6188ZM137.981,84.0936L139.446,83.8464L139.446,95.8502C139.128,95.9443 138.722,96.0385 138.228,96.1326C137.734,96.2268 137.157,96.2738 136.498,96.2738C135.909,96.2738 135.374,96.1738 134.891,95.9737C134.409,95.7737 133.997,95.4883 133.656,95.1176C133.314,94.7469 133.05,94.2967 132.861,93.7672C132.673,93.2376 132.579,92.6433 132.579,91.9843C132.579,91.3488 132.658,90.7692 132.817,90.2455C132.976,89.7218 133.209,89.2717 133.515,88.8951C133.821,88.5185 134.188,88.2243 134.618,88.0124C135.047,87.8006 135.539,87.6947 136.092,87.6947C136.527,87.6947 136.91,87.7476 137.239,87.8536C137.569,87.9595 137.816,88.0713 137.981,88.189L137.981,84.0936Z" style="fill:rgb(63,146,140);fill-rule:nonzero;"/>
                <path d="M148.819,91.9843C148.819,92.6315 148.728,93.217 148.546,93.7407C148.363,94.2644 148.107,94.7145 147.778,95.0911C147.448,95.4677 147.054,95.759 146.595,95.9649C146.136,96.1709 145.636,96.2738 145.095,96.2738C144.565,96.2738 144.074,96.1709 143.621,95.9649C143.168,95.759 142.776,95.4677 142.447,95.0911C142.117,94.7145 141.861,94.2644 141.679,93.7407C141.496,93.217 141.405,92.6315 141.405,91.9843C141.405,91.337 141.496,90.7486 141.679,90.219C141.861,89.6894 142.117,89.2393 142.447,88.8686C142.776,88.4979 143.168,88.2096 143.621,88.0036C144.074,87.7977 144.565,87.6947 145.095,87.6947C145.636,87.6947 146.136,87.7977 146.595,88.0036C147.054,88.2096 147.448,88.4979 147.778,88.8686C148.107,89.2393 148.363,89.6894 148.546,90.219C148.728,90.7486 148.819,91.337 148.819,91.9843ZM147.319,91.9843C147.319,91.0546 147.119,90.322 146.719,89.7865C146.319,89.2511 145.777,88.9833 145.095,88.9833C144.424,88.9833 143.891,89.2511 143.497,89.7865C143.103,90.322 142.906,91.0546 142.906,91.9843C142.906,92.9022 143.103,93.6289 143.497,94.1644C143.891,94.6998 144.424,94.9675 145.095,94.9675C145.777,94.9675 146.319,94.6998 146.719,94.1644C147.119,93.6289 147.319,92.9022 147.319,91.9843Z" style="fill:rgb(63,146,140);fill-rule:nonzero;"/>
                <path d="M164.548,94.032C164.548,93.7377 164.427,93.4965 164.186,93.3082C163.945,93.1199 163.645,92.9552 163.286,92.8139C162.927,92.6727 162.535,92.5344 162.112,92.3991C161.688,92.2638 161.297,92.0961 160.938,91.896C160.579,91.6959 160.279,91.4488 160.038,91.1546C159.796,90.8604 159.676,90.4779 159.676,90.0072C159.676,89.3481 159.943,88.798 160.479,88.3567C161.014,87.9153 161.853,87.6947 162.994,87.6947C163.442,87.6947 163.903,87.7271 164.38,87.7918C164.857,87.8565 165.266,87.9418 165.607,88.0477L165.342,89.354C165.248,89.307 165.119,89.2569 164.954,89.204C164.789,89.151 164.601,89.104 164.389,89.0628C164.177,89.0216 163.95,88.9892 163.709,88.9657C163.468,88.9421 163.236,88.9304 163.012,88.9304C161.741,88.9304 161.105,89.2775 161.105,89.9719C161.105,90.219 161.226,90.4279 161.467,90.5985C161.709,90.7692 162.012,90.9251 162.376,91.0663C162.741,91.2075 163.136,91.3517 163.559,91.4988C163.983,91.6459 164.377,91.8254 164.742,92.0372C165.107,92.2491 165.41,92.505 165.651,92.8051C165.892,93.1052 166.013,93.4847 166.013,93.9437C166.013,94.6851 165.725,95.2588 165.148,95.6648C164.571,96.0708 163.659,96.2738 162.412,96.2738C161.847,96.2738 161.329,96.2268 160.858,96.1326C160.388,96.0385 159.94,95.8972 159.517,95.709L159.799,94.385C160.211,94.5733 160.644,94.7292 161.097,94.8528C161.55,94.9764 162.035,95.0382 162.553,95.0382C163.883,95.0382 164.548,94.7028 164.548,94.032Z" style="fill:rgb(63,146,140);fill-rule:nonzero;"/>
                <path d="M175.298,91.9843C175.298,92.6315 175.207,93.217 175.025,93.7407C174.842,94.2644 174.586,94.7145 174.257,95.0911C173.927,95.4677 173.533,95.759 173.074,95.9649C172.615,96.1709 172.115,96.2738 171.573,96.2738C171.044,96.2738 170.553,96.1709 170.099,95.9649C169.646,95.759 169.255,95.4677 168.926,95.0911C168.596,94.7145 168.34,94.2644 168.158,93.7407C167.975,93.217 167.884,92.6315 167.884,91.9843C167.884,91.337 167.975,90.7486 168.158,90.219C168.34,89.6894 168.596,89.2393 168.926,88.8686C169.255,88.4979 169.646,88.2096 170.099,88.0036C170.553,87.7977 171.044,87.6947 171.573,87.6947C172.115,87.6947 172.615,87.7977 173.074,88.0036C173.533,88.2096 173.927,88.4979 174.257,88.8686C174.586,89.2393 174.842,89.6894 175.025,90.219C175.207,90.7486 175.298,91.337 175.298,91.9843ZM173.798,91.9843C173.798,91.0546 173.598,90.322 173.197,89.7865C172.797,89.2511 172.256,88.9833 171.573,88.9833C170.903,88.9833 170.37,89.2511 169.976,89.7865C169.582,90.322 169.385,91.0546 169.385,91.9843C169.385,92.9022 169.582,93.6289 169.976,94.1644C170.37,94.6998 170.903,94.9675 171.573,94.9675C172.256,94.9675 172.797,94.6998 173.197,94.1644C173.598,93.6289 173.798,92.9022 173.798,91.9843Z" style="fill:rgb(63,146,140);fill-rule:nonzero;"/>
                <path d="M176.728,88.1184C177.434,87.8477 178.099,87.7123 178.723,87.7123C179.064,87.7123 179.385,87.7624 179.685,87.8624C179.985,87.9624 180.241,88.1184 180.453,88.3302C180.959,87.9183 181.5,87.7123 182.077,87.7123C182.359,87.7123 182.627,87.7653 182.88,87.8712C183.133,87.9771 183.357,88.136 183.551,88.3478C183.745,88.5597 183.901,88.8245 184.019,89.1422C184.136,89.4599 184.195,89.8307 184.195,90.2543L184.195,96.0797L182.871,96.0797L182.871,90.219C182.871,89.7953 182.777,89.4717 182.589,89.2481C182.4,89.0245 182.165,88.9127 181.883,88.9127C181.741,88.9127 181.594,88.948 181.441,89.0186C181.288,89.0892 181.147,89.201 181.018,89.354C181.088,89.6247 181.123,89.9248 181.123,90.2543L181.123,92.9198L179.8,92.9198L179.8,90.2367C179.8,89.8248 179.735,89.5011 179.605,89.2658C179.476,89.0304 179.223,88.9127 178.846,88.9127C178.611,88.9127 178.346,88.9657 178.052,89.0716L178.052,96.0797L176.728,96.0797L176.728,88.1184Z" style="fill:rgb(63,146,140);fill-rule:nonzero;"/>
                <path d="M189.403,87.6947C190.509,87.6947 191.362,88.0389 191.962,88.7274C192.562,89.4158 192.862,90.4603 192.862,91.8607L192.862,92.3726L187.002,92.3726C187.061,93.2199 187.34,93.8643 187.84,94.3056C188.34,94.7469 189.044,94.9675 189.95,94.9675C190.468,94.9675 190.909,94.9264 191.274,94.844C191.639,94.7616 191.915,94.6733 192.103,94.5792L192.298,95.8149C192.121,95.909 191.803,96.009 191.344,96.115C190.885,96.2209 190.368,96.2738 189.791,96.2738C189.085,96.2738 188.464,96.165 187.929,95.9473C187.393,95.7295 186.949,95.4324 186.596,95.0558C186.243,94.6792 185.978,94.2291 185.801,93.7054C185.625,93.1817 185.537,92.6139 185.537,92.0019C185.537,91.2723 185.648,90.6368 185.872,90.0954C186.096,89.5541 186.39,89.1069 186.755,88.7538C187.119,88.4008 187.531,88.136 187.99,87.9595C188.449,87.783 188.92,87.6947 189.403,87.6947ZM191.38,91.1899C191.38,90.4956 191.197,89.9454 190.832,89.5394C190.468,89.1334 189.985,88.9304 189.385,88.9304C189.044,88.9304 188.735,88.9951 188.458,89.1245C188.182,89.254 187.943,89.4246 187.743,89.6365C187.543,89.8483 187.384,90.0896 187.267,90.3602C187.149,90.6309 187.072,90.9075 187.037,91.1899L191.38,91.1899Z" style="fill:rgb(63,146,140);fill-rule:nonzero;"/>
                <path d="M206.984,95.0382C207.349,95.0382 207.676,95.0264 207.964,95.0028C208.253,94.9793 208.491,94.9499 208.679,94.9146L208.679,92.4785C208.491,92.4197 208.264,92.3726 208,92.3373C207.735,92.302 207.455,92.2844 207.161,92.2844C206.89,92.2844 206.626,92.305 206.367,92.3461C206.108,92.3873 205.878,92.4609 205.678,92.5668C205.478,92.6727 205.313,92.811 205.184,92.9816C205.054,93.1523 204.99,93.367 204.99,93.626C204.99,94.1555 205.169,94.5233 205.528,94.7292C205.887,94.9352 206.373,95.0382 206.984,95.0382ZM206.843,87.6947C207.455,87.6947 207.97,87.7712 208.388,87.9242C208.806,88.0772 209.144,88.289 209.403,88.5597C209.662,88.8303 209.844,89.1599 209.95,89.5482C210.056,89.9366 210.109,90.3602 210.109,90.8192L210.109,95.9384C209.768,95.9973 209.318,96.0679 208.759,96.1503C208.2,96.2326 207.626,96.2738 207.037,96.2738C206.59,96.2738 206.155,96.2356 205.731,96.1591C205.307,96.0826 204.931,95.9473 204.601,95.7531C204.272,95.5589 204.007,95.2912 203.807,94.9499C203.607,94.6086 203.507,94.1732 203.507,93.6436C203.507,93.1729 203.61,92.7757 203.816,92.4521C204.022,92.1284 204.287,91.8666 204.61,91.6665C204.934,91.4665 205.305,91.3223 205.722,91.234C206.14,91.1458 206.561,91.1016 206.984,91.1016C207.561,91.1016 208.126,91.1664 208.679,91.2958L208.679,90.8898C208.679,90.6427 208.653,90.4044 208.6,90.1749C208.547,89.9454 208.447,89.7365 208.3,89.5482C208.152,89.3599 207.952,89.2099 207.699,89.0981C207.446,88.9863 207.12,88.9304 206.72,88.9304C206.214,88.9304 205.772,88.9657 205.396,89.0363C205.019,89.1069 204.731,89.1775 204.531,89.2481L204.354,88.0477C204.554,87.9536 204.887,87.8712 205.352,87.8006C205.816,87.73 206.314,87.6947 206.843,87.6947Z" style="fill:rgb(63,146,140);fill-rule:nonzero;"/>
                <path d="M212.563,88.1184C213.092,87.9889 213.619,87.8889 214.143,87.8183C214.666,87.7476 215.158,87.7123 215.617,87.7123C216.711,87.7123 217.538,87.9948 218.097,88.5597C218.656,89.1245 218.935,90.0307 218.935,91.2782L218.935,96.0797L217.488,96.0797L217.488,91.5429C217.488,91.0134 217.441,90.5838 217.347,90.2543C217.252,89.9248 217.12,89.6688 216.949,89.4864C216.779,89.304 216.573,89.1775 216.332,89.1069C216.09,89.0363 215.828,89.001 215.546,89.001C215.311,89.001 215.061,89.0157 214.796,89.0451C214.531,89.0745 214.275,89.1128 214.028,89.1599L214.028,96.0797L212.563,96.0797L212.563,88.1184Z" style="fill:rgb(63,146,140);fill-rule:nonzero;"/>
                <path d="M224.637,95.0382C225.002,95.0382 225.328,95.0264 225.617,95.0028C225.905,94.9793 226.143,94.9499 226.332,94.9146L226.332,92.4785C226.143,92.4197 225.917,92.3726 225.652,92.3373C225.387,92.302 225.108,92.2844 224.814,92.2844C224.543,92.2844 224.278,92.305 224.019,92.3461C223.76,92.3873 223.531,92.4609 223.331,92.5668C223.131,92.6727 222.966,92.811 222.836,92.9816C222.707,93.1523 222.642,93.367 222.642,93.626C222.642,94.1555 222.822,94.5233 223.181,94.7292C223.54,94.9352 224.025,95.0382 224.637,95.0382ZM224.496,87.6947C225.108,87.6947 225.623,87.7712 226.04,87.9242C226.458,88.0772 226.797,88.289 227.055,88.5597C227.314,88.8303 227.497,89.1599 227.603,89.5482C227.709,89.9366 227.762,90.3602 227.762,90.8192L227.762,95.9384C227.42,95.9973 226.97,96.0679 226.411,96.1503C225.852,96.2326 225.278,96.2738 224.69,96.2738C224.243,96.2738 223.807,96.2356 223.384,96.1591C222.96,96.0826 222.583,95.9473 222.254,95.7531C221.924,95.5589 221.66,95.2912 221.46,94.9499C221.26,94.6086 221.159,94.1732 221.159,93.6436C221.159,93.1729 221.262,92.7757 221.468,92.4521C221.674,92.1284 221.939,91.8666 222.263,91.6665C222.586,91.4665 222.957,91.3223 223.375,91.234C223.793,91.1458 224.213,91.1016 224.637,91.1016C225.214,91.1016 225.779,91.1664 226.332,91.2958L226.332,90.8898C226.332,90.6427 226.305,90.4044 226.252,90.1749C226.199,89.9454 226.099,89.7365 225.952,89.5482C225.805,89.3599 225.605,89.2099 225.352,89.0981C225.099,88.9863 224.772,88.9304 224.372,88.9304C223.866,88.9304 223.425,88.9657 223.048,89.0363C222.672,89.1069 222.383,89.1775 222.183,89.2481L222.007,88.0477C222.207,87.9536 222.539,87.8712 223.004,87.8006C223.469,87.73 223.966,87.6947 224.496,87.6947Z" style="fill:rgb(63,146,140);fill-rule:nonzero;"/>
                <path d="M234.928,96.2738C234.411,96.2738 233.981,96.2032 233.64,96.062C233.299,95.9208 233.028,95.709 232.828,95.4265C232.628,95.1441 232.487,94.794 232.404,94.3762C232.322,93.9584 232.281,93.473 232.281,92.9198L232.281,85.1704L229.915,85.1704L229.915,83.9347L233.728,83.9347L233.728,92.9198C233.728,93.3317 233.755,93.6671 233.808,93.926C233.861,94.1849 233.943,94.3938 234.055,94.5527C234.166,94.7116 234.305,94.8204 234.47,94.8793C234.634,94.9381 234.828,94.9675 235.052,94.9675C235.393,94.9675 235.711,94.9264 236.005,94.844C236.299,94.7616 236.529,94.6733 236.694,94.5792L236.906,95.8149C236.835,95.8502 236.735,95.8943 236.605,95.9473C236.476,96.0002 236.323,96.0502 236.147,96.0973C235.97,96.1444 235.779,96.1856 235.573,96.2209C235.367,96.2562 235.152,96.2738 234.928,96.2738Z" style="fill:rgb(63,146,140);fill-rule:nonzero;"/>
                <path d="M238.688,97.6154C238.794,97.6743 238.944,97.7213 239.139,97.7566C239.333,97.792 239.512,97.8096 239.677,97.8096C240.254,97.8096 240.704,97.6831 241.027,97.4301C241.351,97.1771 241.648,96.7622 241.919,96.1856C241.26,94.9381 240.642,93.5995 240.065,92.1696C239.489,90.7398 239.012,89.3128 238.636,87.8889L240.224,87.8889C240.342,88.3596 240.48,88.8686 240.639,89.4158C240.798,89.963 240.977,90.525 241.177,91.1016C241.378,91.6783 241.592,92.2579 241.822,92.8404C242.051,93.4229 242.295,93.979 242.554,94.5086C242.743,93.9672 242.919,93.4318 243.084,92.9022C243.249,92.3726 243.402,91.8401 243.543,91.3046C243.684,90.7692 243.825,90.2219 243.967,89.663C244.108,89.104 244.255,88.5126 244.408,87.8889L245.926,87.8889C245.549,89.4188 245.129,90.9016 244.664,92.3373C244.199,93.7731 243.702,95.1029 243.172,96.3268C242.972,96.7975 242.757,97.2035 242.528,97.5448C242.298,97.8861 242.048,98.1685 241.778,98.3921C241.507,98.6157 241.201,98.7805 240.86,98.8864C240.518,98.9923 240.13,99.0453 239.695,99.0453C239.471,99.0453 239.227,99.0159 238.962,98.957C238.697,98.8982 238.518,98.8452 238.424,98.7981L238.688,97.6154Z" style="fill:rgb(63,146,140);fill-rule:nonzero;"/>
                <path d="M252.811,94.032C252.811,93.7377 252.69,93.4965 252.449,93.3082C252.207,93.1199 251.907,92.9552 251.548,92.8139C251.189,92.6727 250.798,92.5344 250.374,92.3991C249.951,92.2638 249.56,92.0961 249.201,91.896C248.842,91.6959 248.542,91.4488 248.3,91.1546C248.059,90.8604 247.938,90.4779 247.938,90.0072C247.938,89.3481 248.206,88.798 248.742,88.3567C249.277,87.9153 250.116,87.6947 251.257,87.6947C251.704,87.6947 252.166,87.7271 252.643,87.7918C253.119,87.8565 253.528,87.9418 253.87,88.0477L253.605,89.354C253.511,89.307 253.381,89.2569 253.217,89.204C253.052,89.151 252.863,89.104 252.652,89.0628C252.44,89.0216 252.213,88.9892 251.972,88.9657C251.731,88.9421 251.498,88.9304 251.275,88.9304C250.004,88.9304 249.368,89.2775 249.368,89.9719C249.368,90.219 249.489,90.4279 249.73,90.5985C249.971,90.7692 250.274,90.9251 250.639,91.0663C251.004,91.2075 251.398,91.3517 251.822,91.4988C252.246,91.6459 252.64,91.8254 253.005,92.0372C253.37,92.2491 253.673,92.505 253.914,92.8051C254.155,93.1052 254.276,93.4847 254.276,93.9437C254.276,94.6851 253.987,95.2588 253.411,95.6648C252.834,96.0708 251.922,96.2738 250.675,96.2738C250.11,96.2738 249.592,96.2268 249.121,96.1326C248.65,96.0385 248.203,95.8972 247.78,95.709L248.062,94.385C248.474,94.5733 248.906,94.7292 249.359,94.8528C249.813,94.9764 250.298,95.0382 250.816,95.0382C252.146,95.0382 252.811,94.7028 252.811,94.032Z" style="fill:rgb(63,146,140);fill-rule:nonzero;"/>
                <path d="M259.13,86.6179C258.824,86.6179 258.559,86.512 258.336,86.3001C258.112,86.0883 258,85.8 258,85.4352C258,85.0703 258.112,84.782 258.336,84.5702C258.559,84.3584 258.824,84.2524 259.13,84.2524C259.448,84.2524 259.716,84.3584 259.933,84.5702C260.151,84.782 260.26,85.0703 260.26,85.4352C260.26,85.8 260.151,86.0883 259.933,86.3001C259.716,86.512 259.448,86.6179 259.13,86.6179ZM258.759,89.1069L256.394,89.1069L256.394,87.8889L260.207,87.8889L260.207,92.9198C260.207,93.7319 260.319,94.2762 260.542,94.5527C260.766,94.8293 261.101,94.9675 261.549,94.9675C261.89,94.9675 262.205,94.9264 262.493,94.844C262.781,94.7616 263.008,94.6733 263.173,94.5792L263.384,95.8149C263.314,95.8502 263.214,95.8943 263.084,95.9473C262.955,96.0002 262.805,96.0502 262.634,96.0973C262.464,96.1444 262.275,96.1856 262.069,96.2209C261.863,96.2562 261.649,96.2738 261.425,96.2738C260.907,96.2738 260.478,96.2032 260.136,96.062C259.795,95.9208 259.521,95.709 259.315,95.4265C259.11,95.1441 258.965,94.794 258.883,94.3762C258.801,93.9584 258.759,93.473 258.759,92.9198L258.759,89.1069Z" style="fill:rgb(63,146,140);fill-rule:nonzero;"/>
                <path d="M270.463,94.032C270.463,93.7377 270.342,93.4965 270.101,93.3082C269.86,93.1199 269.56,92.9552 269.201,92.8139C268.842,92.6727 268.451,92.5344 268.027,92.3991C267.603,92.2638 267.212,92.0961 266.853,91.896C266.494,91.6959 266.194,91.4488 265.953,91.1546C265.712,90.8604 265.591,90.4779 265.591,90.0072C265.591,89.3481 265.859,88.798 266.394,88.3567C266.93,87.9153 267.768,87.6947 268.91,87.6947C269.357,87.6947 269.819,87.7271 270.295,87.7918C270.772,87.8565 271.181,87.9418 271.522,88.0477L271.257,89.354C271.163,89.307 271.034,89.2569 270.869,89.204C270.704,89.151 270.516,89.104 270.304,89.0628C270.092,89.0216 269.866,88.9892 269.625,88.9657C269.383,88.9421 269.151,88.9304 268.927,88.9304C267.656,88.9304 267.021,89.2775 267.021,89.9719C267.021,90.219 267.141,90.4279 267.383,90.5985C267.624,90.7692 267.927,90.9251 268.292,91.0663C268.657,91.2075 269.051,91.3517 269.475,91.4988C269.898,91.6459 270.292,91.8254 270.657,92.0372C271.022,92.2491 271.325,92.505 271.566,92.8051C271.808,93.1052 271.928,93.4847 271.928,93.9437C271.928,94.6851 271.64,95.2588 271.063,95.6648C270.487,96.0708 269.575,96.2738 268.327,96.2738C267.762,96.2738 267.244,96.2268 266.774,96.1326C266.303,96.0385 265.856,95.8972 265.432,95.709L265.715,94.385C266.126,94.5733 266.559,94.7292 267.012,94.8528C267.465,94.9764 267.951,95.0382 268.468,95.0382C269.798,95.0382 270.463,94.7028 270.463,94.032Z" style="fill:rgb(63,146,140);fill-rule:nonzero;"/>
                <path d="M286.421,95.0382C286.786,95.0382 287.112,95.0264 287.401,95.0028C287.689,94.9793 287.927,94.9499 288.116,94.9146L288.116,92.4785C287.927,92.4197 287.701,92.3726 287.436,92.3373C287.171,92.302 286.892,92.2844 286.598,92.2844C286.327,92.2844 286.062,92.305 285.803,92.3461C285.544,92.3873 285.315,92.4609 285.115,92.5668C284.915,92.6727 284.75,92.811 284.62,92.9816C284.491,93.1523 284.426,93.367 284.426,93.626C284.426,94.1555 284.606,94.5233 284.965,94.7292C285.324,94.9352 285.809,95.0382 286.421,95.0382ZM286.28,87.6947C286.892,87.6947 287.407,87.7712 287.824,87.9242C288.242,88.0772 288.58,88.289 288.839,88.5597C289.098,88.8303 289.281,89.1599 289.387,89.5482C289.493,89.9366 289.545,90.3602 289.545,90.8192L289.545,95.9384C289.204,95.9973 288.754,96.0679 288.195,96.1503C287.636,96.2326 287.062,96.2738 286.474,96.2738C286.027,96.2738 285.591,96.2356 285.168,96.1591C284.744,96.0826 284.367,95.9473 284.038,95.7531C283.708,95.5589 283.444,95.2912 283.244,94.9499C283.043,94.6086 282.943,94.1732 282.943,93.6436C282.943,93.1729 283.046,92.7757 283.252,92.4521C283.458,92.1284 283.723,91.8666 284.047,91.6665C284.37,91.4665 284.741,91.3223 285.159,91.234C285.577,91.1458 285.997,91.1016 286.421,91.1016C286.998,91.1016 287.563,91.1664 288.116,91.2958L288.116,90.8898C288.116,90.6427 288.089,90.4044 288.036,90.1749C287.983,89.9454 287.883,89.7365 287.736,89.5482C287.589,89.3599 287.389,89.2099 287.136,89.0981C286.883,88.9863 286.556,88.9304 286.156,88.9304C285.65,88.9304 285.209,88.9657 284.832,89.0363C284.456,89.1069 284.167,89.1775 283.967,89.2481L283.791,88.0477C283.991,87.9536 284.323,87.8712 284.788,87.8006C285.253,87.73 285.75,87.6947 286.28,87.6947Z" style="fill:rgb(63,146,140);fill-rule:nonzero;"/>
                <path d="M291.999,88.1184C292.529,87.9889 293.055,87.8889 293.579,87.8183C294.103,87.7476 294.594,87.7123 295.053,87.7123C296.148,87.7123 296.974,87.9948 297.533,88.5597C298.092,89.1245 298.372,90.0307 298.372,91.2782L298.372,96.0797L296.924,96.0797L296.924,91.5429C296.924,91.0134 296.877,90.5838 296.783,90.2543C296.689,89.9248 296.556,89.6688 296.386,89.4864C296.215,89.304 296.009,89.1775 295.768,89.1069C295.527,89.0363 295.265,89.001 294.982,89.001C294.747,89.001 294.497,89.0157 294.232,89.0451C293.967,89.0745 293.711,89.1128 293.464,89.1599L293.464,96.0797L291.999,96.0797L291.999,88.1184Z" style="fill:rgb(63,146,140);fill-rule:nonzero;"/>
                <path d="M305.68,89.6188C305.515,89.4658 305.274,89.3217 304.956,89.1863C304.638,89.051 304.309,88.9833 303.968,88.9833C303.579,88.9833 303.247,89.0598 302.97,89.2128C302.694,89.3658 302.467,89.5747 302.291,89.8395C302.114,90.1043 301.985,90.422 301.902,90.7927C301.82,91.1634 301.779,91.5606 301.779,91.9843C301.779,92.9375 302.002,93.673 302.45,94.1908C302.897,94.7086 303.479,94.9675 304.197,94.9675C304.562,94.9675 304.871,94.9499 305.124,94.9146C305.377,94.8793 305.562,94.844 305.68,94.8087L305.68,89.6188ZM305.68,84.0936L307.145,83.8464L307.145,95.8502C306.827,95.9443 306.421,96.0385 305.927,96.1326C305.433,96.2268 304.856,96.2738 304.197,96.2738C303.609,96.2738 303.073,96.1738 302.591,95.9737C302.108,95.7737 301.696,95.4883 301.355,95.1176C301.014,94.7469 300.749,94.2967 300.561,93.7672C300.372,93.2376 300.278,92.6433 300.278,91.9843C300.278,91.3488 300.358,90.7692 300.517,90.2455C300.675,89.7218 300.908,89.2717 301.214,88.8951C301.52,88.5185 301.888,88.2243 302.317,88.0124C302.747,87.8006 303.238,87.6947 303.791,87.6947C304.227,87.6947 304.609,87.7476 304.939,87.8536C305.268,87.9595 305.515,88.0713 305.68,88.189L305.68,84.0936Z" style="fill:rgb(63,146,140);fill-rule:nonzero;"/>
                <path d="M323.844,92.0019C323.844,91.0487 323.621,90.3102 323.174,89.7865C322.726,89.2628 322.144,89.001 321.426,89.001C321.026,89.001 320.711,89.0186 320.482,89.0539C320.252,89.0892 320.073,89.1304 319.943,89.1775L319.943,94.3497C320.108,94.5027 320.349,94.6439 320.667,94.7734C320.985,94.9028 321.314,94.9675 321.655,94.9675C322.044,94.9675 322.376,94.8911 322.653,94.7381C322.929,94.5851 323.156,94.3762 323.332,94.1114C323.509,93.8466 323.638,93.5347 323.721,93.1758C323.803,92.8169 323.844,92.4256 323.844,92.0019ZM325.345,92.0019C325.345,92.6256 325.265,93.1993 325.107,93.723C324.948,94.2467 324.718,94.6969 324.418,95.0735C324.118,95.45 323.75,95.7443 323.315,95.9561C322.879,96.1679 322.385,96.2738 321.832,96.2738C321.397,96.2738 321.014,96.2209 320.685,96.115C320.355,96.009 320.108,95.8914 319.943,95.7619L319.943,98.9923L318.478,98.9923L318.478,88.136C318.796,88.0419 319.205,87.9477 319.705,87.8536C320.205,87.7594 320.779,87.7123 321.426,87.7123C322.014,87.7123 322.55,87.8124 323.032,88.0124C323.515,88.2125 323.927,88.4979 324.268,88.8686C324.609,89.2393 324.874,89.6894 325.062,90.219C325.251,90.7486 325.345,91.3429 325.345,92.0019Z" style="fill:rgb(63,146,140);fill-rule:nonzero;"/>
                <path d="M327.94,96.0797L327.94,88.3302C329.14,87.9183 330.352,87.7123 331.576,87.7123C331.953,87.7123 332.312,87.7271 332.653,87.7565C332.994,87.7859 333.371,87.8477 333.783,87.9418L333.518,89.2305C333.141,89.1245 332.809,89.0569 332.521,89.0275C332.232,88.998 331.918,88.9833 331.576,88.9833C330.858,88.9833 330.129,89.0834 329.387,89.2834L329.387,96.0797L327.94,96.0797Z" style="fill:rgb(63,146,140);fill-rule:nonzero;"/>
                <path d="M342.997,91.9843C342.997,92.6315 342.906,93.217 342.724,93.7407C342.541,94.2644 342.285,94.7145 341.956,95.0911C341.626,95.4677 341.232,95.759 340.773,95.9649C340.314,96.1709 339.814,96.2738 339.273,96.2738C338.743,96.2738 338.252,96.1709 337.799,95.9649C337.346,95.759 336.954,95.4677 336.625,95.0911C336.295,94.7145 336.039,94.2644 335.857,93.7407C335.675,93.217 335.583,92.6315 335.583,91.9843C335.583,91.337 335.675,90.7486 335.857,90.219C336.039,89.6894 336.295,89.2393 336.625,88.8686C336.954,88.4979 337.346,88.2096 337.799,88.0036C338.252,87.7977 338.743,87.6947 339.273,87.6947C339.814,87.6947 340.314,87.7977 340.773,88.0036C341.232,88.2096 341.626,88.4979 341.956,88.8686C342.285,89.2393 342.541,89.6894 342.724,90.219C342.906,90.7486 342.997,91.337 342.997,91.9843ZM341.497,91.9843C341.497,91.0546 341.297,90.322 340.897,89.7865C340.497,89.2511 339.955,88.9833 339.273,88.9833C338.602,88.9833 338.069,89.2511 337.675,89.7865C337.281,90.322 337.084,91.0546 337.084,91.9843C337.084,92.9022 337.281,93.6289 337.675,94.1644C338.069,94.6998 338.602,94.9675 339.273,94.9675C339.955,94.9675 340.497,94.6998 340.897,94.1644C341.297,93.6289 341.497,92.9022 341.497,91.9843Z" style="fill:rgb(63,146,140);fill-rule:nonzero;"/>
                <path d="M349.811,95.3206C349.647,95.4147 349.394,95.5148 349.052,95.6207C348.711,95.7266 348.317,95.7796 347.87,95.7796C347.387,95.7796 346.937,95.7001 346.519,95.5413C346.101,95.3824 345.737,95.1411 345.425,94.8175C345.113,94.4939 344.866,94.082 344.683,93.5818C344.501,93.0817 344.41,92.4903 344.41,91.8077C344.41,91.2075 344.495,90.6574 344.666,90.1572C344.836,89.6571 345.083,89.2246 345.407,88.8598C345.731,88.4949 346.128,88.2096 346.599,88.0036C347.069,87.7977 347.605,87.6947 348.205,87.6947C348.911,87.6947 349.514,87.7447 350.014,87.8447C350.514,87.9448 350.935,88.0419 351.276,88.136L351.276,95.4442C351.276,96.7151 350.956,97.6331 350.314,98.198C349.673,98.7628 348.705,99.0453 347.411,99.0453C346.881,99.0453 346.401,99.0041 345.972,98.9217C345.542,98.8393 345.163,98.7393 344.833,98.6216L345.098,97.333C345.404,97.4624 345.754,97.5684 346.148,97.6507C346.543,97.7331 346.975,97.7743 347.446,97.7743C348.293,97.7743 348.899,97.6037 349.264,97.2624C349.629,96.9211 349.811,96.368 349.811,95.603L349.811,95.3206ZM349.811,89.1775C349.67,89.1304 349.476,89.0863 349.229,89.0451C348.982,89.0039 348.646,88.9833 348.223,88.9833C347.469,88.9833 346.896,89.2422 346.501,89.76C346.107,90.2778 345.91,90.9663 345.91,91.8254C345.91,92.2961 345.966,92.6992 346.078,93.0346C346.19,93.37 346.343,93.6465 346.537,93.8643C346.731,94.082 346.952,94.2408 347.199,94.3409C347.446,94.4409 347.711,94.4909 347.993,94.4909C348.358,94.4909 348.702,94.438 349.026,94.3321C349.349,94.2261 349.611,94.1026 349.811,93.9613L349.811,89.1775Z" style="fill:rgb(63,146,140);fill-rule:nonzero;"/>
                <path d="M354.419,96.0797L354.419,88.3302C355.619,87.9183 356.831,87.7123 358.055,87.7123C358.432,87.7123 358.791,87.7271 359.132,87.7565C359.473,87.7859 359.85,87.8477 360.262,87.9418L359.997,89.2305C359.62,89.1245 359.288,89.0569 358.999,89.0275C358.711,88.998 358.396,88.9833 358.055,88.9833C357.337,88.9833 356.608,89.0834 355.866,89.2834L355.866,96.0797L354.419,96.0797Z" style="fill:rgb(63,146,140);fill-rule:nonzero;"/>
                <path d="M365.857,95.0382C366.222,95.0382 366.549,95.0264 366.837,95.0028C367.126,94.9793 367.364,94.9499 367.552,94.9146L367.552,92.4785C367.364,92.4197 367.137,92.3726 366.873,92.3373C366.608,92.302 366.328,92.2844 366.034,92.2844C365.763,92.2844 365.499,92.305 365.24,92.3461C364.981,92.3873 364.751,92.4609 364.551,92.5668C364.351,92.6727 364.186,92.811 364.057,92.9816C363.927,93.1523 363.863,93.367 363.863,93.626C363.863,94.1555 364.042,94.5233 364.401,94.7292C364.76,94.9352 365.246,95.0382 365.857,95.0382ZM365.716,87.6947C366.328,87.6947 366.843,87.7712 367.261,87.9242C367.679,88.0772 368.017,88.289 368.276,88.5597C368.535,88.8303 368.717,89.1599 368.823,89.5482C368.929,89.9366 368.982,90.3602 368.982,90.8192L368.982,95.9384C368.641,95.9973 368.191,96.0679 367.632,96.1503C367.073,96.2326 366.499,96.2738 365.91,96.2738C365.463,96.2738 365.028,96.2356 364.604,96.1591C364.18,96.0826 363.804,95.9473 363.474,95.7531C363.145,95.5589 362.88,95.2912 362.68,94.9499C362.48,94.6086 362.38,94.1732 362.38,93.6436C362.38,93.1729 362.483,92.7757 362.689,92.4521C362.895,92.1284 363.16,91.8666 363.483,91.6665C363.807,91.4665 364.178,91.3223 364.595,91.234C365.013,91.1458 365.434,91.1016 365.857,91.1016C366.434,91.1016 366.999,91.1664 367.552,91.2958L367.552,90.8898C367.552,90.6427 367.526,90.4044 367.473,90.1749C367.42,89.9454 367.32,89.7365 367.173,89.5482C367.026,89.3599 366.825,89.2099 366.572,89.0981C366.319,88.9863 365.993,88.9304 365.593,88.9304C365.087,88.9304 364.645,88.9657 364.269,89.0363C363.892,89.1069 363.604,89.1775 363.404,89.2481L363.227,88.0477C363.427,87.9536 363.76,87.8712 364.225,87.8006C364.689,87.73 365.187,87.6947 365.716,87.6947Z" style="fill:rgb(63,146,140);fill-rule:nonzero;"/>
                <path d="M370.906,88.1184C371.612,87.8477 372.277,87.7123 372.901,87.7123C373.242,87.7123 373.563,87.7624 373.863,87.8624C374.163,87.9624 374.419,88.1184 374.631,88.3302C375.137,87.9183 375.678,87.7123 376.255,87.7123C376.537,87.7123 376.805,87.7653 377.058,87.8712C377.311,87.9771 377.535,88.136 377.729,88.3478C377.923,88.5597 378.079,88.8245 378.197,89.1422C378.314,89.4599 378.373,89.8307 378.373,90.2543L378.373,96.0797L377.049,96.0797L377.049,90.219C377.049,89.7953 376.955,89.4717 376.767,89.2481C376.578,89.0245 376.343,88.9127 376.061,88.9127C375.919,88.9127 375.772,88.948 375.619,89.0186C375.466,89.0892 375.325,89.201 375.196,89.354C375.266,89.6247 375.302,89.9248 375.302,90.2543L375.302,92.9198L373.978,92.9198L373.978,90.2367C373.978,89.8248 373.913,89.5011 373.783,89.2658C373.654,89.0304 373.401,88.9127 373.024,88.9127C372.789,88.9127 372.524,88.9657 372.23,89.0716L372.23,96.0797L370.906,96.0797L370.906,88.1184Z" style="fill:rgb(63,146,140);fill-rule:nonzero;"/>
                <path d="M379.732,88.1184C380.439,87.8477 381.103,87.7123 381.727,87.7123C382.068,87.7123 382.389,87.7624 382.689,87.8624C382.989,87.9624 383.245,88.1184 383.457,88.3302C383.963,87.9183 384.504,87.7123 385.081,87.7123C385.364,87.7123 385.631,87.7653 385.884,87.8712C386.137,87.9771 386.361,88.136 386.555,88.3478C386.749,88.5597 386.905,88.8245 387.023,89.1422C387.141,89.4599 387.199,89.8307 387.199,90.2543L387.199,96.0797L385.875,96.0797L385.875,90.219C385.875,89.7953 385.781,89.4717 385.593,89.2481C385.405,89.0245 385.169,88.9127 384.887,88.9127C384.746,88.9127 384.599,88.948 384.446,89.0186C384.293,89.0892 384.151,89.201 384.022,89.354C384.093,89.6247 384.128,89.9248 384.128,90.2543L384.128,92.9198L382.804,92.9198L382.804,90.2367C382.804,89.8248 382.739,89.5011 382.61,89.2658C382.48,89.0304 382.227,88.9127 381.851,88.9127C381.615,88.9127 381.351,88.9657 381.056,89.0716L381.056,96.0797L379.732,96.0797L379.732,88.1184Z" style="fill:rgb(63,146,140);fill-rule:nonzero;"/>
                <path d="M391.524,86.6179C391.218,86.6179 390.954,86.512 390.73,86.3001C390.506,86.0883 390.395,85.8 390.395,85.4352C390.395,85.0703 390.506,84.782 390.73,84.5702C390.954,84.3584 391.218,84.2524 391.524,84.2524C391.842,84.2524 392.11,84.3584 392.328,84.5702C392.545,84.782 392.654,85.0703 392.654,85.4352C392.654,85.8 392.545,86.0883 392.328,86.3001C392.11,86.512 391.842,86.6179 391.524,86.6179ZM391.154,89.1069L388.788,89.1069L388.788,87.8889L392.601,87.8889L392.601,92.9198C392.601,93.7319 392.713,94.2762 392.937,94.5527C393.16,94.8293 393.496,94.9675 393.943,94.9675C394.284,94.9675 394.599,94.9264 394.887,94.844C395.175,94.7616 395.402,94.6733 395.567,94.5792L395.779,95.8149C395.708,95.8502 395.608,95.8943 395.478,95.9473C395.349,96.0002 395.199,96.0502 395.028,96.0973C394.858,96.1444 394.669,96.1856 394.463,96.2209C394.258,96.2562 394.043,96.2738 393.819,96.2738C393.301,96.2738 392.872,96.2032 392.531,96.062C392.189,95.9208 391.916,95.709 391.71,95.4265C391.504,95.1441 391.36,94.794 391.277,94.3762C391.195,93.9584 391.154,93.473 391.154,92.9198L391.154,89.1069Z" style="fill:rgb(63,146,140);fill-rule:nonzero;"/>
                <path d="M397.915,88.1184C398.444,87.9889 398.971,87.8889 399.494,87.8183C400.018,87.7476 400.509,87.7123 400.968,87.7123C402.063,87.7123 402.89,87.9948 403.449,88.5597C404.008,89.1245 404.287,90.0307 404.287,91.2782L404.287,96.0797L402.84,96.0797L402.84,91.5429C402.84,91.0134 402.793,90.5838 402.698,90.2543C402.604,89.9248 402.472,89.6688 402.301,89.4864C402.131,89.304 401.925,89.1775 401.683,89.1069C401.442,89.0363 401.18,89.001 400.898,89.001C400.662,89.001 400.412,89.0157 400.148,89.0451C399.883,89.0745 399.627,89.1128 399.38,89.1599L399.38,96.0797L397.915,96.0797L397.915,88.1184Z" style="fill:rgb(63,146,140);fill-rule:nonzero;"/>
                <path d="M411.595,95.3206C411.431,95.4147 411.177,95.5148 410.836,95.6207C410.495,95.7266 410.101,95.7796 409.653,95.7796C409.171,95.7796 408.721,95.7001 408.303,95.5413C407.885,95.3824 407.52,95.1411 407.209,94.8175C406.897,94.4939 406.65,94.082 406.467,93.5818C406.285,93.0817 406.194,92.4903 406.194,91.8077C406.194,91.2075 406.279,90.6574 406.45,90.1572C406.62,89.6571 406.867,89.2246 407.191,88.8598C407.515,88.4949 407.912,88.2096 408.383,88.0036C408.853,87.7977 409.389,87.6947 409.989,87.6947C410.695,87.6947 411.298,87.7447 411.798,87.8447C412.298,87.9448 412.719,88.0419 413.06,88.136L413.06,95.4442C413.06,96.7151 412.74,97.6331 412.098,98.198C411.457,98.7628 410.489,99.0453 409.195,99.0453C408.665,99.0453 408.185,99.0041 407.756,98.9217C407.326,98.8393 406.947,98.7393 406.617,98.6216L406.882,97.333C407.188,97.4624 407.538,97.5684 407.932,97.6507C408.327,97.7331 408.759,97.7743 409.23,97.7743C410.077,97.7743 410.683,97.6037 411.048,97.2624C411.413,96.9211 411.595,96.368 411.595,95.603L411.595,95.3206ZM411.595,89.1775C411.454,89.1304 411.26,89.0863 411.013,89.0451C410.766,89.0039 410.43,88.9833 410.007,88.9833C409.253,88.9833 408.68,89.2422 408.285,89.76C407.891,90.2778 407.694,90.9663 407.694,91.8254C407.694,92.2961 407.75,92.6992 407.862,93.0346C407.974,93.37 408.127,93.6465 408.321,93.8643C408.515,94.082 408.736,94.2408 408.983,94.3409C409.23,94.4409 409.495,94.4909 409.777,94.4909C410.142,94.4909 410.486,94.438 410.81,94.3321C411.133,94.2261 411.395,94.1026 411.595,93.9613L411.595,89.1775Z" style="fill:rgb(63,146,140);fill-rule:nonzero;"/>
                <path d="M417.95,84.0936L417.95,84.8879C417.95,85.4057 417.921,85.9971 417.862,86.662C417.803,87.3269 417.727,87.9359 417.632,88.4891L416.891,88.4891C416.809,87.9359 416.738,87.3269 416.679,86.662C416.62,85.9971 416.591,85.3999 416.591,84.8703L416.591,84.0936L417.95,84.0936ZM420.863,84.0936L420.863,84.8879C420.863,85.4057 420.833,85.9971 420.775,86.662C420.716,87.3269 420.645,87.9359 420.563,88.4891L419.821,88.4891C419.727,87.9359 419.651,87.3269 419.592,86.662C419.533,85.9971 419.504,85.3999 419.504,84.8703L419.504,84.0936L420.863,84.0936Z" style="fill:rgb(63,146,140);fill-rule:nonzero;"/>
                <path d="M434.455,91.5783L440.051,93.8907L439.645,95.1088L432.831,92.2137L432.831,90.9604L439.645,88.0654L440.051,89.2834L434.455,91.5783Z" style="fill:black;fill-rule:nonzero;"/>
                <path d="M443.282,91.5783L448.877,93.8907L448.471,95.1088L441.658,92.2137L441.658,90.9604L448.471,88.0654L448.877,89.2834L443.282,91.5783Z" style="fill:black;fill-rule:nonzero;"/>
                <path d="M458.992,92.0019C458.992,91.2723 459.104,90.6309 459.328,90.0778C459.551,89.5247 459.846,89.0628 460.21,88.6921C460.575,88.3214 460.993,88.0419 461.464,87.8536C461.934,87.6653 462.417,87.5711 462.911,87.5711C464.135,87.5711 465.065,87.933 465.7,88.6568C466.336,89.3805 466.654,90.4367 466.654,91.8254C466.654,91.9666 466.651,92.1137 466.645,92.2667C466.639,92.4197 466.63,92.5433 466.618,92.6374L461.234,92.6374C461.234,93.1788 461.458,93.6054 461.905,93.9172C462.352,94.2291 462.929,94.385 463.635,94.385C464.07,94.385 464.485,94.3379 464.88,94.2438C465.274,94.1496 465.606,94.0555 465.877,93.9613L466.177,95.8149C465.8,95.9443 465.4,96.0532 464.977,96.1414C464.553,96.2297 464.076,96.2738 463.547,96.2738C462.841,96.2738 462.208,96.1826 461.649,96.0002C461.09,95.8178 460.613,95.5471 460.219,95.1882C459.825,94.8293 459.522,94.385 459.31,93.8554C459.098,93.3259 458.992,92.708 458.992,92.0019ZM464.553,91.1369C464.553,90.9133 464.524,90.6986 464.465,90.4926C464.406,90.2867 464.312,90.1013 464.182,89.9366C464.053,89.7718 463.888,89.6394 463.688,89.5394C463.488,89.4394 463.241,89.3893 462.947,89.3893C462.664,89.3893 462.42,89.4364 462.214,89.5306C462.008,89.6247 461.837,89.7542 461.702,89.9189C461.567,90.0837 461.461,90.272 461.384,90.4838C461.308,90.6956 461.258,90.9133 461.234,91.1369L464.553,91.1369Z" style="fill:black;fill-rule:nonzero;"/>
                <path d="M468.384,88.0477C468.772,87.9418 469.251,87.8418 469.822,87.7476C470.393,87.6535 471.014,87.6064 471.685,87.6064C472.344,87.6064 472.891,87.6976 473.326,87.88C473.762,88.0625 474.106,88.3214 474.359,88.6568C474.612,88.9922 474.791,89.3923 474.897,89.8571C475.003,90.322 475.056,90.8368 475.056,91.4017L475.056,96.0797L472.885,96.0797L472.885,91.6842C472.885,90.9075 472.797,90.3485 472.62,90.0072C472.444,89.6659 472.085,89.4953 471.543,89.4953C471.379,89.4953 471.217,89.5011 471.058,89.5129C470.899,89.5247 470.731,89.5423 470.555,89.5659L470.555,96.0797L468.384,96.0797L468.384,88.0477Z" style="fill:black;fill-rule:nonzero;"/>
                <path d="M478.799,91.8783C478.799,92.6198 478.937,93.2258 479.213,93.6966C479.49,94.1673 479.934,94.4027 480.546,94.4027C480.723,94.4027 480.887,94.3968 481.04,94.385C481.193,94.3732 481.352,94.3556 481.517,94.3321L481.517,89.813C481.352,89.7189 481.164,89.6394 480.952,89.5747C480.74,89.51 480.517,89.4776 480.281,89.4776C479.764,89.4776 479.387,89.6835 479.152,90.0954C478.916,90.5073 478.799,91.1016 478.799,91.8783ZM483.688,95.8325C483.288,95.962 482.8,96.0679 482.223,96.1503C481.646,96.2326 481.082,96.2738 480.528,96.2738C479.234,96.2738 478.254,95.8914 477.589,95.1264C476.924,94.3615 476.592,93.3141 476.592,91.9843C476.592,90.6309 476.871,89.5629 477.43,88.7803C477.989,87.9977 478.816,87.6064 479.911,87.6064C480.205,87.6064 480.493,87.6388 480.776,87.7035C481.058,87.7682 481.305,87.8594 481.517,87.9771L481.517,84.1995L483.688,83.8288L483.688,95.8325Z" style="fill:black;fill-rule:nonzero;"/>
                <path d="M493.168,95.7266C493.132,95.7501 493.053,95.7913 492.929,95.8502C492.806,95.909 492.644,95.9708 492.444,96.0355C492.244,96.1003 492,96.1561 491.711,96.2032C491.423,96.2503 491.096,96.2738 490.732,96.2738C489.731,96.2738 489.002,95.9767 488.543,95.3824C488.084,94.7881 487.854,93.9202 487.854,92.7786L487.854,85.7353L485.559,85.7353L485.559,83.9347L490.026,83.9347L490.026,92.9375C490.026,93.5024 490.137,93.8849 490.361,94.0849C490.585,94.285 490.867,94.385 491.208,94.385C491.644,94.385 492.009,94.3262 492.303,94.2085C492.597,94.0908 492.791,94.0143 492.885,93.979L493.168,95.7266Z" style="fill:black;fill-rule:nonzero;"/>
                <path d="M495.833,97.3683C496.045,97.3212 496.26,97.28 496.478,97.2447C496.695,97.2094 496.901,97.1565 497.095,97.0859C497.29,97.0152 497.463,96.9152 497.616,96.7858C497.769,96.6563 497.893,96.4798 497.987,96.2562C497.54,96.2091 497.193,96.0326 496.945,95.7266C496.698,95.4206 496.575,95.0793 496.575,94.7028C496.575,94.2438 496.725,93.8672 497.025,93.573C497.325,93.2788 497.704,93.1317 498.163,93.1317C498.658,93.1317 499.043,93.2964 499.32,93.626C499.596,93.9555 499.734,94.4027 499.734,94.9675C499.734,95.3794 499.67,95.7913 499.54,96.2032C499.411,96.6151 499.202,96.9976 498.914,97.3506C498.625,97.7037 498.252,98.0097 497.793,98.2686C497.334,98.5275 496.775,98.6981 496.116,98.7805L495.833,97.3683ZM499.752,89.3364C499.752,89.8542 499.593,90.2484 499.276,90.5191C498.958,90.7898 498.593,90.9251 498.181,90.9251C497.969,90.9251 497.769,90.8898 497.581,90.8192C497.393,90.7486 497.225,90.6456 497.078,90.5103C496.931,90.3749 496.813,90.2102 496.725,90.016C496.636,89.8218 496.592,89.5953 496.592,89.3364C496.592,89.0892 496.636,88.8686 496.725,88.6744C496.813,88.4802 496.931,88.3184 497.078,88.189C497.225,88.0595 497.393,87.9595 497.581,87.8889C497.769,87.8183 497.969,87.783 498.181,87.783C498.593,87.783 498.958,87.9183 499.276,88.189C499.593,88.4596 499.752,88.8421 499.752,89.3364Z" style="fill:black;fill-rule:nonzero;"/>
            </g>
            <g>
                <path d="M356.257,58.1416L356.326,58.0572C356.717,57.347 357.165,56.4687 357.671,55.422C358.176,54.3754 358.684,53.2744 359.194,52.1191L359.404,51.7574L359.124,51.1369L358.739,52.0577C358.278,53.0843 357.807,54.0887 357.325,55.071C356.844,56.0533 356.385,56.9277 355.949,57.6941C355.473,56.8772 355.252,55.9543 355.285,54.9253C355.318,53.8963 355.443,52.8528 355.659,51.7947C355.875,50.7367 356.13,49.6874 356.425,48.647C356.72,47.6066 356.898,46.6813 356.959,45.871C357.02,45.0608 356.905,44.3924 356.613,43.8658C356.322,43.3392 355.699,43.0425 354.744,42.9758C355.2,43.197 355.418,43.6409 355.399,44.3077C355.38,44.9744 355.261,45.7751 355.043,46.7097C354.825,47.6443 354.581,48.6614 354.313,49.7609C354.045,50.8605 353.89,51.9354 353.849,52.9859C353.807,54.0363 353.957,55.0181 354.298,55.9312C354.64,56.8444 355.293,57.5811 356.257,58.1416ZM356.981,34.8145L357.995,36.7046L359.33,33.7534L358.336,31.9076L356.981,34.8145ZM316.83,39.0217C315.06,38.6472 313.291,38.6101 311.523,38.9104C309.755,39.2108 308.101,39.7623 306.56,40.565C305.02,41.3677 303.634,42.376 302.403,43.5899C301.173,44.8039 300.21,46.1372 299.514,47.5899C298.818,49.0426 298.424,50.5725 298.332,52.1796C298.24,53.7867 298.562,55.3666 299.299,56.9193C299.852,57.9859 300.547,58.9348 301.385,59.766L301.857,59.3927C300.963,58.5159 300.302,57.6046 299.875,56.6591C299.178,55.195 298.878,53.6849 298.976,52.1288C299.074,50.5728 299.473,49.0938 300.174,47.6921C300.875,46.2904 301.8,45.01 302.948,43.8508C304.097,42.6917 305.364,41.7549 306.748,41.0404C308.133,40.3259 309.58,39.8859 311.089,39.7204C312.597,39.555 314.066,39.7544 315.494,40.3186C314.582,41.371 313.791,42.5913 313.119,43.9797C312.448,45.3681 311.937,46.8172 311.587,48.3271C311.238,49.8369 311.047,51.364 311.015,52.9081C310.983,54.4523 311.122,55.9016 311.431,57.2561C311.741,58.6106 312.241,59.8166 312.932,60.8741C313.623,61.9317 314.517,62.7287 315.613,63.2653C316.125,63.5322 316.649,63.6689 317.186,63.6756C317.722,63.6822 318.262,63.6164 318.804,63.4782C319.333,63.3104 319.865,63.0701 320.4,62.7575C320.935,62.4448 321.449,62.0878 321.944,61.6865C322.681,61.0335 323.356,60.2838 323.97,59.4373C324.584,58.5908 325.053,57.7386 325.377,56.8807C326.006,55.2803 326.349,53.5598 326.407,51.7191C326.465,49.8785 326.104,48.1737 325.325,46.6048C324.838,45.686 324.394,44.8994 323.992,44.245C323.59,43.5907 323.141,43.0107 322.646,42.505C322.151,41.9994 321.581,41.5452 320.936,41.1426C320.292,40.7399 319.521,40.3322 318.623,39.9195C319.153,39.3599 319.857,38.7927 320.736,38.2179C321.615,37.6431 322.465,37.2413 323.287,37.0125C324.753,36.6349 325.952,36.7693 326.884,37.4155C327.816,38.0617 328.531,38.8952 329.027,39.9161C329.711,41.3506 330.039,42.9634 330.012,44.7544C329.985,46.5455 329.739,48.4621 329.274,50.5044C328.809,52.5466 328.207,54.6596 327.468,56.8435C326.729,59.0273 326,61.2332 325.281,63.4614C324.561,65.6895 323.93,67.8957 323.387,70.08C322.844,72.2643 322.536,74.3599 322.465,76.3668C322.393,78.3738 322.634,80.248 323.19,81.9894C323.745,83.7309 324.758,85.2836 326.228,86.6475C325.892,85.5895 325.576,84.398 325.28,83.0731C324.984,81.7482 325.005,80.1201 325.342,78.1889C325.587,76.762 325.996,75.3234 326.568,73.873C327.14,72.4227 327.8,70.9686 328.547,69.5106C329.293,68.0527 330.102,66.5935 330.972,65.1332C331.842,63.6729 332.719,62.2273 333.603,60.7965C334.828,58.7842 336.003,56.857 337.128,55.0149C338.253,53.1728 339.213,51.3605 340.009,49.578C339.782,51.2814 339.554,53.021 339.324,54.7968C339.095,56.5726 338.949,58.3372 338.887,60.0906C338.825,61.844 338.91,63.5488 339.142,65.205C339.375,66.8611 339.839,68.4212 340.536,69.8853C341.233,71.3494 342.218,72.6833 343.491,73.8871C344.764,75.0909 346.443,76.1113 348.529,76.948C347.049,75.4821 346.102,73.3661 345.688,70.5999C345.275,67.8338 345.335,64.6582 345.868,61.0732C346.401,57.4882 347.38,53.6306 348.806,49.5003C350.231,45.37 352.053,41.2119 354.271,37.0258C356.489,32.8397 359.052,28.7651 361.958,24.8021C364.864,20.839 368.071,17.2288 371.581,13.9716C375.09,10.7143 378.856,7.94604 382.879,5.66673C386.901,3.38742 391.134,1.84921 395.576,1.0521C391.06,1.13527 386.761,2.07226 382.678,3.86306C378.595,5.65386 374.79,8.03968 371.262,11.0205C367.734,14.0013 364.502,17.4182 361.564,21.2712C358.625,25.1242 356.033,29.1504 353.785,33.3498C351.537,37.5492 349.654,41.7703 348.138,46.0131C346.621,50.2558 345.517,54.25 344.825,57.9956C344.133,61.7413 343.885,65.0908 344.08,68.0443C344.276,70.9977 344.951,73.2808 346.107,74.8936C345.205,73.8422 344.469,72.627 343.9,71.2477C343.33,69.8685 342.879,68.4358 342.545,66.9498C342.212,65.4638 341.981,63.9673 341.852,62.4603C341.723,60.9533 341.64,59.5498 341.604,58.2496C341.568,56.9494 341.577,55.807 341.63,54.8224C341.684,53.8377 341.727,53.1066 341.76,52.6291C341.799,52.0066 341.876,51.2515 341.991,50.3636C342.106,49.4757 342.198,48.536 342.266,47.5447C342.334,46.5534 342.366,45.5425 342.363,44.5121C342.36,43.4817 342.272,42.4987 342.099,41.5632C341.925,40.6276 341.661,39.7865 341.306,39.0396C340.951,38.2928 340.462,37.704 339.841,37.2732L339.797,37.2932C339.671,37.1722 339.533,37.0833 339.383,37.0266C339.232,36.9699 339.072,36.9091 338.9,36.8443L338.687,36.7271C339,37.2618 339.276,37.7951 339.516,38.327C339.757,38.8589 339.938,39.4174 340.06,40.0027C340.073,40.0322 340.079,40.0651 340.078,40.1013C340.076,40.1376 340.089,40.1852 340.116,40.2443L340.31,41.3838L340.266,41.4039L340.286,41.4482C340.446,42.9056 340.3,44.3945 339.848,45.9149C339.397,47.4352 338.773,48.9888 337.978,50.5754C337.182,52.162 336.274,53.7732 335.251,55.4089C334.229,57.0447 333.206,58.6985 332.183,60.3705C330.445,63.2187 328.905,66.1111 327.564,69.0474C326.222,71.9838 325.298,74.9004 324.792,77.7972C324.939,75.5248 325.355,73.1759 326.038,70.7504C326.721,68.325 327.488,65.9064 328.337,63.4948C329.187,61.0832 330.002,58.7137 330.783,56.3865C331.564,54.0592 332.12,51.8427 332.449,49.7371C332.779,47.6315 332.787,45.6801 332.473,43.8828C332.16,42.0856 331.34,40.5079 330.015,39.1496C329.641,38.714 329.214,38.3018 328.736,37.9129C328.258,37.5241 327.714,37.1652 327.103,36.8364C326.264,36.397 325.403,36.1454 324.521,36.0816C323.638,36.0178 322.76,36.1029 321.888,36.337C321.015,36.571 320.152,36.9252 319.299,37.3994C318.446,37.8737 317.623,38.4145 316.83,39.0217ZM320.259,42.596C321.076,43.2231 321.806,43.9339 322.449,44.7284C323.093,45.5228 323.658,46.3795 324.144,47.2983C324.897,48.8082 325.353,50.3897 325.513,52.043C325.673,53.6963 325.454,55.2803 324.858,56.795C324.52,57.6233 324.068,58.4326 323.5,59.2228C322.931,60.0131 322.287,60.7132 321.567,61.3233C321.131,61.6979 320.668,62.0316 320.178,62.3242C319.687,62.6169 319.207,62.8338 318.737,62.9749C318.267,63.116 317.797,63.1773 317.326,63.1587C316.855,63.1401 316.407,63.0136 315.98,62.7792C315.125,62.3827 314.423,61.6149 313.873,60.4759C313.2,59.1433 312.803,57.517 312.683,55.5968C312.563,53.6766 312.747,51.6813 313.235,49.6109C313.6,48.0581 314.121,46.5514 314.795,45.0905C315.469,43.6297 316.361,42.2754 317.469,41.0276C317.954,41.2354 318.435,41.472 318.91,41.7375C319.386,42.0029 319.835,42.2891 320.259,42.596Z" style="fill:rgb(63,146,140);fill-rule:nonzero;"/>
                <path d="M362.019,55.539C361.257,55.7411 360.646,55.688 360.186,55.3797C359.727,55.0714 359.397,54.5976 359.198,53.9585C358.998,53.3194 358.89,52.5497 358.875,51.6494C358.86,50.7492 358.912,49.7826 359.033,48.7498C359.153,47.717 359.307,46.6602 359.495,45.5792C359.683,44.4983 359.884,43.4469 360.098,42.4251L358.087,43.7606C357.624,44.0761 357.37,44.1822 357.323,44.0788C357.277,43.9754 357.345,43.7931 357.53,43.5319C357.714,43.2707 357.932,43.0035 358.182,42.7304C358.432,42.4573 358.61,42.2793 358.714,42.1964L360.367,41.1297L360.986,38.1285C361.122,37.2487 361.166,36.5176 361.116,35.9352C361.066,35.3528 360.771,34.9348 360.23,34.6813C360.68,34.6556 361.083,34.7585 361.436,34.9901C361.79,35.2217 362.086,35.5417 362.324,35.9501C362.561,36.3586 362.725,36.8004 362.815,37.2755C362.906,37.7507 362.921,38.1975 362.861,38.616C362.852,38.8333 362.765,39.1926 362.6,39.694C363.106,39.3947 363.566,39.1335 363.981,38.9104C364.396,38.6874 364.736,38.5339 365,38.45C365.265,38.3661 365.428,38.3725 365.489,38.4693C365.551,38.566 365.459,38.7764 365.214,39.1005L362.287,41.0095C361.952,42.1571 361.595,43.4745 361.217,44.9615C360.839,46.4485 360.55,47.8954 360.35,49.3024C360.149,50.7093 360.121,51.967 360.266,53.0756C360.411,54.1841 360.839,54.9338 361.549,55.3246L361.642,55.1759C361.844,54.8356 362.095,54.3666 362.394,53.7689C362.693,53.1713 363.001,52.534 363.318,51.8572C363.635,51.1805 363.955,50.5111 364.279,49.849C364.602,49.187 364.875,48.6282 365.096,48.1726C365.103,48.347 365.104,48.5248 365.097,48.7059C365.089,48.887 365.09,49.0648 365.097,49.2392C364.941,49.5233 364.724,49.9682 364.446,50.5739C364.168,51.1797 363.882,51.8069 363.588,52.4556C363.294,53.1043 363.009,53.7134 362.733,54.2829C362.456,54.8525 362.219,55.2712 362.019,55.539Z" style="fill:rgb(63,146,140);fill-rule:nonzero;"/>
                <path d="M375.549,44.7319C375.117,45.7452 374.664,46.7504 374.189,47.7474C373.715,48.7445 373.212,49.7187 372.681,50.67C371.697,50.2249 371.015,49.5994 370.633,48.7935C370.251,47.9876 370.046,47.1016 370.019,46.1356C369.992,45.1695 370.086,44.1755 370.3,43.1537C370.514,42.1319 370.734,41.161 370.959,40.2412C371.184,39.3213 371.354,38.4973 371.47,37.7691C371.586,37.0408 371.527,36.498 371.295,36.1405C371.268,36.0814 371.233,36.0438 371.19,36.0276C370.77,36.7511 370.319,37.6221 369.836,38.6406C369.353,39.6591 368.888,40.6965 368.44,41.7526C367.992,42.8088 367.573,43.8516 367.185,44.8811C366.796,45.9105 366.469,46.8409 366.204,47.6721C366.08,48.9732 365.993,50.1597 365.944,51.2316C365.894,52.3034 365.913,53.0152 366.001,53.367C365.399,52.8208 365.03,51.6889 364.894,49.9713C364.759,48.2536 364.795,46.2271 365.003,43.8918C365.212,41.5564 365.571,39.0638 366.082,36.4139C366.593,33.764 367.186,31.2189 367.863,28.7787C368.539,26.3385 369.275,24.1654 370.068,22.2595C370.861,20.3535 371.667,18.9668 372.485,18.0993L372.917,17.6375C373.126,17.4716 373.261,17.3753 373.32,17.3487C373.408,17.3086 373.525,17.2915 373.67,17.2972L373.903,17.4587C373.999,17.5931 374.07,17.8281 374.115,18.1636C374.146,18.4696 374.109,18.8599 374.003,19.3346C373.724,20.528 373.438,21.7067 373.146,22.8705C372.853,24.0344 372.509,25.2035 372.115,26.3779C371.72,27.5522 371.319,28.7118 370.911,29.8566C370.503,31.0014 370.081,32.1529 369.643,33.3111L366.954,40.2357C366.924,40.6408 366.853,41.3309 366.742,42.306C366.631,43.2812 366.523,44.3616 366.418,45.5474C366.645,44.9469 366.887,44.3216 367.145,43.6715C367.403,43.0214 367.668,42.3679 367.941,41.7112C368.421,40.5692 368.899,39.4816 369.375,38.4483C369.851,37.415 370.292,36.5581 370.696,35.8775C370.774,35.7354 370.901,35.6425 371.077,35.5986C371.253,35.5548 371.412,35.5719 371.554,35.6501C371.755,35.7016 371.952,35.8617 372.144,36.1305C372.609,36.8453 372.866,37.5919 372.916,38.3702C372.965,39.1485 372.919,39.9339 372.779,40.7265C372.639,41.5191 372.451,42.3243 372.216,43.1422C371.981,43.96 371.796,44.7726 371.663,45.58C371.529,46.3874 371.498,47.1842 371.569,47.9706C371.639,48.757 371.922,49.5009 372.416,50.2025C372.794,49.4628 373.212,48.6158 373.67,47.6617C374.129,46.7075 374.589,45.7171 375.05,44.6905L376.184,41.8837C376.191,42.0582 376.198,42.2507 376.204,42.4614C376.211,42.672 376.224,42.8793 376.245,43.0833L375.549,44.7319ZM373.188,18.4753C371.724,21.3779 370.497,24.5292 369.507,27.9293C368.517,31.3294 367.791,34.6456 367.33,37.8779L369.623,31.6125C370.374,29.4944 371.092,27.3823 371.777,25.2762C372.463,23.1701 373.059,21.0242 373.566,18.8385L373.627,18.3838C373.63,18.3114 373.618,18.2456 373.591,18.1865C373.549,18.1703 373.52,18.1474 373.507,18.1179L373.418,18.1579C373.389,18.1713 373.37,18.1887 373.362,18.2101C373.354,18.2316 373.335,18.2489 373.306,18.2623L373.188,18.4753Z" style="fill:rgb(63,146,140);fill-rule:nonzero;"/>
            </g>
        </g>
    </g>
</svg>
